<svg width="203" height="55" viewBox="0 0 203 55" fill="none" xmlns="http://www.w3.org/2000/svg">
<path d="M19.9527 0.0959135C13.6119 1.02278 8.68304 5.47548 8.04731 11.0062V23.1832C4.5509 24.3059 1.67821 26.5166 0.000488281 29.3318V11.329C0.000488281 5.08423 5.95511 2.86987e-06 13.2779 2.86987e-06H17.937C18.617 -0.00019736 19.293 0.030839 19.9527 0.0959135Z" fill="#07A9D7"/>
<path d="M35.8736 39.0549C35.8736 46.7798 29.1319 53.1851 20.4039 54.2143C20.3658 54.2203 20.3298 54.2243 20.2918 54.2283H20.2878C14.0426 53.4414 9.10094 49.2506 8.15186 43.9285C8.41215 45.0038 9.12497 45.9408 10.1141 46.5816V46.5836C10.9931 47.1542 12.0904 47.4926 13.2777 47.4926H17.9371C23.3893 47.4926 27.8264 43.7063 27.8264 39.0549C27.8264 35.7792 25.6299 32.9359 22.4322 31.5383C25.4337 30.9356 28.1688 29.7403 30.4614 28.1064C33.7972 30.8876 35.8736 34.77 35.8736 39.0549Z" fill="#017CBE"/>
<path d="M20.2864 54.2283C20.0974 54.249 19.9042 54.2696 19.711 54.2832C19.522 54.3004 19.3327 54.314 19.1397 54.3244C18.9185 54.3383 18.6972 54.3451 18.4718 54.3519C18.2948 54.3553 18.1137 54.3587 17.9365 54.3587H13.2774C5.95462 54.3587 0 49.2743 0 43.0297V35.0754C0 28.8272 5.95462 23.7464 13.2774 23.7464H17.6871C12.1105 25.1917 8.05483 29.6135 8.05483 34.8419C8.05082 34.9208 8.04682 34.9965 8.04682 35.0754V43.0297C8.04682 43.1739 8.05483 43.318 8.07104 43.4588C8.07905 43.5103 8.08706 43.5651 8.09507 43.6168C8.10308 43.6648 8.11129 43.7163 8.1193 43.7678C8.12731 43.8226 8.13952 43.8777 8.15154 43.9291C9.10123 49.2504 14.0421 53.4422 20.2864 54.2283Z" fill="#07A9D7"/>
<path d="M35.8492 15.3077C35.8632 17.6664 35.2585 20.0231 34.0031 22.1095C33.963 22.1816 33.917 22.2537 33.8729 22.3258C33.2142 23.413 32.4093 24.4222 31.4722 25.3392C31.3861 25.4253 31.298 25.5114 31.2099 25.5935C31.1138 25.6816 31.0137 25.7757 30.9156 25.8618C27.7379 28.6851 23.3509 30.4191 18.7616 30.5953C18.4873 30.6053 18.215 30.6133 17.9367 30.6133H13.2774C13.1772 30.6133 13.0731 30.6153 12.971 30.6233C12.8949 30.6233 12.8188 30.6293 12.7427 30.6373C11.5273 30.7374 10.36 31.226 9.51705 31.9768C9.51104 31.9828 9.50503 31.9869 9.49903 31.9929C9.35486 32.123 9.2147 32.2612 9.08856 32.4073C9.04851 32.4494 9.00846 32.4934 8.97643 32.5415C8.65005 32.9399 8.40577 33.3825 8.24759 33.857C8.18752 34.0312 8.13947 34.2134 8.10743 34.3956C8.08341 34.5438 8.06338 34.6899 8.05537 34.8421C8.05537 29.6141 12.11 25.1911 17.6864 23.7454H17.9367C18.1009 23.7454 18.2671 23.7434 18.4313 23.7354C18.4433 23.7354 18.4593 23.7354 18.4753 23.7334C18.6335 23.7254 18.7897 23.7154 18.9458 23.7014C19.072 23.6913 19.1961 23.6773 19.3163 23.6633C23.1827 23.2348 26.4945 20.6719 27.4916 17.4742C28.2045 15.1896 27.7239 12.6547 26.2042 10.6784C24.6103 8.60206 21.8372 7.12237 18.9218 6.91012C18.7656 6.89411 18.6095 6.88409 18.4513 6.87609H18.4273C18.2671 6.87008 18.1009 6.86607 17.9367 6.86607H13.2774C12.0499 6.86607 10.9247 7.22849 10.0316 7.83518C8.82225 8.65212 8.04736 9.91557 8.04736 11.3292V11.0068C8.68209 5.47648 13.6117 1.02338 19.957 0.0963182C19.9971 0.100323 20.0351 0.104327 20.0751 0.110334C25.7256 0.699009 30.9316 3.69244 33.6667 7.95933C35.0923 10.1799 35.8352 12.7448 35.8492 15.3077Z" fill="#017CBE"/>
<path opacity="0.5" d="M20.4034 54.2143C20.3654 54.2203 20.3293 54.2243 20.2913 54.2283H20.2873C14.0421 53.4414 9.10045 49.2506 8.15137 43.9285C8.41167 45.0038 9.12448 45.9408 10.1136 46.5816V46.5836C10.1136 46.5836 10.1136 46.5856 10.1156 46.5876C10.1837 46.7718 12.4343 52.6746 20.4034 54.2143Z" fill="#1F1E21"/>
<path opacity="0.5" d="M10.0657 7.7651C10.0577 7.78312 10.0477 7.79914 10.0396 7.81716C10.0336 7.82917 10.0316 7.83518 10.0316 7.83518C8.82225 8.65211 8.04736 9.91556 8.04736 11.3292V11.0068C8.68209 5.47648 13.6117 1.02338 19.957 0.0963135C19.987 0.0983158 13.8654 0.849176 10.0657 7.7651Z" fill="#1F1E21"/>
<path opacity="0.5" d="M17.6301 23.7614C10.2417 26.3023 9.51685 31.9768 9.51685 31.9768C9.51084 31.9828 9.50484 31.9869 9.49883 31.9929C9.35467 32.123 9.2145 32.2612 9.08836 32.4073C9.04831 32.4494 9.00827 32.4934 8.97623 32.5415C8.64986 32.9399 8.40558 33.3825 8.2474 33.857C8.18733 34.0312 8.13927 34.2134 8.10724 34.3956C8.08321 34.5438 8.06318 34.69 8.05518 34.8421C8.05518 29.6322 12.0818 25.2211 17.6301 23.7614Z" fill="#1F1E21"/>
<path d="M19.9529 0.0963139C13.6116 1.02338 8.68197 5.47648 8.04725 11.0068V23.1828C7.79296 23.2649 7.54267 23.351 7.29639 23.4451V11.0068C7.93111 5.47648 12.8608 1.02338 19.202 0.0963139C18.5413 0.0302382 17.8665 0.000203133 17.1857 0.000203133H17.9366C18.6174 0.000203133 19.2921 0.0302382 19.9529 0.0963139Z" fill="white"/>
<path d="M19.7106 54.2824L19.6445 54.2884C13.6196 53.5696 8.31155 49.0364 7.40051 43.9285C7.38849 43.8785 7.37648 43.8224 7.36847 43.7683C7.36046 43.7163 7.35245 43.6642 7.34444 43.6162C7.33643 43.5661 7.32842 43.5101 7.32041 43.458C7.30439 43.3178 7.29639 43.1737 7.29639 43.0295V35.0744C7.29639 34.9963 7.30039 34.9202 7.30439 34.8421C7.30439 29.6141 11.359 25.1911 16.9354 23.7454H17.6863C12.1099 25.1911 8.05525 29.6141 8.05525 34.8421C8.05125 34.9202 8.04725 34.9963 8.04725 35.0744V43.0295C8.04725 43.1737 8.05526 43.3178 8.07127 43.458C8.07928 43.5101 8.08729 43.5661 8.0953 43.6162C8.10331 43.6642 8.11132 43.7163 8.11933 43.7683C8.12734 43.8224 8.13935 43.8785 8.15137 43.9285C9.10045 49.2506 14.0421 53.4414 20.2873 54.2283C20.097 54.2483 19.9048 54.2704 19.7106 54.2824Z" fill="white"/>
<path d="M60.9541 24.3357H66.2055C68.2968 24.3357 69.4586 22.8486 69.4586 21.315C69.4586 19.4561 68.4827 18.2478 66.2055 18.2478H60.9541V24.3357ZM50.5444 37.8126V17.086C50.5444 12.6247 52.4962 10.7193 56.6322 10.7193H67.7391C76.7547 10.7193 79.5895 14.7159 79.5895 19.1773C79.5895 22.6627 78.3813 25.1722 74.8494 26.1016V26.1946C78.9389 26.9381 81.0302 30.1912 81.0302 34.3272C81.0302 39.8109 77.0336 44.1793 68.4827 44.1793H56.6322C52.4962 44.1793 50.5444 42.274 50.5444 37.8126ZM60.9541 36.6508H66.2985C68.9009 36.6508 70.6204 35.582 70.6204 33.3978C70.6204 31.2136 68.9009 30.1912 66.2985 30.1912H60.9541V36.6508ZM89.2706 40.0433V14.8553C89.2706 11.6023 91.269 10.1152 94.0573 10.1152C96.8456 10.1152 98.8439 11.6023 98.8439 14.8553V40.0433C98.8439 43.2964 96.8456 44.7835 94.0573 44.7835C91.269 44.7835 89.2706 43.2964 89.2706 40.0433ZM106.951 32.0036C106.951 23.2203 112.946 19.2702 120.568 19.2702C128.189 19.2702 134.184 23.2203 134.184 32.0036C134.184 40.8333 128.189 44.7835 120.568 44.7835C112.946 44.7835 106.951 40.8333 106.951 32.0036ZM124.611 32.2824C124.611 27.7282 123.124 25.6834 120.568 25.6834C118.012 25.6834 116.524 27.7282 116.524 32.2824C116.524 36.3255 118.012 38.3703 120.568 38.3703C123.124 38.3703 124.611 36.3255 124.611 32.2824ZM159.047 42.4599V39.2533H158.954C157.978 41.5769 155.19 42.5993 152.262 42.5993C147.847 42.5993 141.853 39.6251 141.853 30.9812C141.853 24.6145 145.71 19.2702 152.448 19.2702C155.237 19.2702 159.001 20.5714 159.791 23.6386H159.884C159.884 21.1756 161.324 19.2702 164.066 19.2702C166.948 19.2702 168.342 20.8503 168.342 23.9174V43.4823C168.342 51.0572 162.812 53.7991 154.725 53.7991C145.57 53.7991 143.247 50.1278 143.247 48.2224C143.247 46.2706 144.548 44.6905 146.732 44.6905C148.963 44.6905 150.636 47.6648 153.935 47.6648C157.839 47.6648 159.047 45.8988 159.047 42.4599ZM159.419 31.0742C159.419 28.3788 158.397 25.9622 155.422 25.9622C152.495 25.9622 151.426 27.9605 151.426 31.0742C151.426 34.1878 152.495 36.1861 155.422 36.1861C158.397 36.1861 159.419 33.7695 159.419 31.0742ZM190.789 37.5803C190.789 36.7438 190.324 35.9073 187.675 35.3496L184.84 34.7455C177.869 33.2584 175.825 30.7488 175.825 27.1705C175.825 23.4527 178.52 19.2702 188.093 19.2702C193.763 19.2702 199.665 20.8503 199.665 24.568C199.665 26.241 198.364 27.5423 196.505 27.5423C193.345 27.5423 192.369 24.568 187.814 24.568C186.095 24.568 185.119 25.1722 185.119 26.2875C185.119 27.217 185.537 27.6817 188.093 28.2393L192.136 29.1223C197.388 30.2841 200.641 32.4683 200.641 36.372C200.641 40.601 197.481 44.7835 187.443 44.7835C181.262 44.7835 175.778 42.9246 175.778 38.8815C175.778 37.3014 177.312 35.9537 179.171 35.9537C181.866 35.9537 183.167 39.4856 187.768 39.4856C189.813 39.4856 190.789 38.5097 190.789 37.5803Z" fill="#017CBE"/>
</svg>
